<svg width="16" height="21" viewBox="0 0 16 21" fill="none" xmlns="http://www.w3.org/2000/svg">
<path d="M8 0.380005C5.87827 0.380005 3.84344 1.22286 2.34315 2.72315C0.842855 4.22344 0 6.25827 0 8.38C0 13.78 7.05 19.88 7.35 20.14C7.53113 20.2949 7.76165 20.38 8 20.38C8.23836 20.38 8.46887 20.2949 8.65 20.14C9 19.88 16 13.78 16 8.38C16 6.25827 15.1572 4.22344 13.6568 2.72315C12.1566 1.22286 10.1217 0.380005 8 0.380005ZM8 18.03C5.87 16.03 2 11.72 2 8.38C2 6.78871 2.63215 5.26258 3.75736 4.13737C4.88257 3.01215 6.40871 2.38 8 2.38C9.59129 2.38 11.1174 3.01215 12.2426 4.13737C13.3679 5.26258 14 6.78871 14 8.38C14 11.72 10.13 16.04 8 18.03ZM8 4.38C7.20888 4.38 6.43552 4.6146 5.77772 5.05412C5.11992 5.49366 4.60723 6.11837 4.30448 6.84927C4.00173 7.58018 3.92252 8.38445 4.07685 9.16037C4.2312 9.93629 4.61216 10.649 5.17157 11.2084C5.73099 11.7678 6.44372 12.1488 7.21964 12.3032C7.99556 12.4575 8.79983 12.3783 9.53073 12.0755C10.2616 11.7728 10.8864 11.2601 11.3259 10.6023C11.7654 9.94448 12 9.17113 12 8.38C12 7.31914 11.5786 6.30172 10.8284 5.55158C10.0783 4.80143 9.06087 4.38 8 4.38ZM8 10.38C7.60444 10.38 7.21776 10.2627 6.88887 10.0429C6.55996 9.82318 6.30361 9.51082 6.15224 9.14538C6.00087 8.77993 5.96125 8.37779 6.03843 7.98982C6.1156 7.60186 6.30608 7.2455 6.58579 6.96579C6.86549 6.68609 7.22185 6.4956 7.60983 6.41843C7.99779 6.34126 8.39992 6.38087 8.76537 6.53225C9.13081 6.68362 9.44317 6.93996 9.66293 7.26887C9.88271 7.59776 10 7.98445 10 8.38C10 8.91043 9.78929 9.41915 9.41421 9.79422C9.03915 10.1693 8.53044 10.38 8 10.38Z" fill="#1CA8CB"/>
</svg>
