<svg width="19" height="19" viewBox="0 0 19 19" fill="none" xmlns="http://www.w3.org/2000/svg">
<path d="M8.89663 6.88005H12.23C12.451 6.88005 12.663 6.79225 12.8192 6.63597C12.9755 6.47969 13.0633 6.26772 13.0633 6.04671C13.0633 5.8257 12.9755 5.61373 12.8192 5.45746C12.663 5.30118 12.451 5.21338 12.23 5.21338H10.5633V4.38005C10.5633 4.15903 10.4755 3.94707 10.3192 3.79079C10.1629 3.63451 9.95098 3.54671 9.72996 3.54671C9.50895 3.54671 9.29699 3.63451 9.14071 3.79079C8.98443 3.94707 8.89663 4.15903 8.89663 4.38005V5.21338C8.23359 5.21338 7.5977 5.47677 7.12886 5.94561C6.66003 6.41446 6.39663 7.05033 6.39663 7.71338C6.39663 8.37642 6.66003 9.0123 7.12886 9.48115C7.5977 9.94999 8.23359 10.2134 8.89663 10.2134H10.5633C10.7843 10.2134 10.9963 10.3012 11.1525 10.4575C11.3088 10.6137 11.3966 10.8257 11.3966 11.0467C11.3966 11.2677 11.3088 11.4797 11.1525 11.6359C10.9963 11.7923 10.7843 11.88 10.5633 11.88H7.22996C7.00895 11.88 6.79699 11.9678 6.6407 12.1242C6.48443 12.2804 6.39663 12.4924 6.39663 12.7134C6.39663 12.9344 6.48443 13.1464 6.6407 13.3026C6.79699 13.4589 7.00895 13.5467 7.22996 13.5467H8.89663V14.38C8.89663 14.601 8.98443 14.813 9.14071 14.9693C9.29699 15.1256 9.50895 15.2134 9.72996 15.2134C9.95098 15.2134 10.1629 15.1256 10.3192 14.9693C10.4755 14.813 10.5633 14.601 10.5633 14.38V13.5467C11.2263 13.5467 11.8622 13.2833 12.3311 12.8145C12.8 12.3456 13.0633 11.7097 13.0633 11.0467C13.0633 10.3837 12.8 9.74779 12.3311 9.27895C11.8622 8.8101 11.2263 8.54671 10.5633 8.54671H8.89663C8.67562 8.54671 8.46366 8.45891 8.30737 8.30263C8.15109 8.14636 8.06329 7.93439 8.06329 7.71338C8.06329 7.49237 8.15109 7.2804 8.30737 7.12412C8.46366 6.96785 8.67562 6.88005 8.89663 6.88005ZM9.72996 0.213379C7.91697 0.213379 6.14468 0.75099 4.63724 1.75825C3.12978 2.76549 1.95487 4.19712 1.26107 5.87211C0.567266 7.5471 0.385734 9.39021 0.739432 11.1684C1.09313 12.9465 1.96617 14.5798 3.24815 15.8618C4.53014 17.1438 6.16348 18.0169 7.94164 18.3706C9.71979 18.7243 11.563 18.5427 13.2378 17.8489C14.9128 17.1552 16.3445 15.9803 17.3517 14.4728C18.359 12.9654 18.8966 11.193 18.8966 9.38005C18.8966 6.94889 17.9308 4.61731 16.2117 2.89823C14.4927 1.17915 12.1611 0.213379 9.72996 0.213379ZM9.72996 16.88C8.2466 16.88 6.79656 16.4402 5.56318 15.616C4.32982 14.7919 3.36853 13.6206 2.80087 12.2502C2.23322 10.8797 2.08468 9.37172 2.37407 7.91687C2.66346 6.46201 3.37777 5.12563 4.42666 4.07675C5.47556 3.02785 6.81193 2.31355 8.26678 2.02416C9.72165 1.73477 11.2296 1.88329 12.6001 2.45095C13.9705 3.0186 15.1418 3.9799 15.966 5.21327C16.7901 6.44663 17.23 7.89669 17.23 9.38005C17.23 11.3692 16.4397 13.2768 15.0333 14.6834C13.6267 16.0898 11.7191 16.88 9.72996 16.88Z" fill="#1CA8CB"/>
</svg>
