<svg width="15" height="15" viewBox="0 0 15 15" fill="none" xmlns="http://www.w3.org/2000/svg">
<g clip-path="url(#clip0_4_1016)">
<path d="M6.70374 3.78125C6.74019 3.38021 6.95894 3.16146 7.35999 3.125C7.76103 3.16146 7.97978 3.38021 8.01624 3.78125V7.14453L10.3405 8.70312C10.6686 8.95833 10.7233 9.25911 10.5045 9.60547C10.2675 9.93359 9.97587 9.98828 9.62952 9.76953L7.00452 8.01953C6.804 7.91016 6.70374 7.72786 6.70374 7.47266V3.78125ZM7.35999 0.5C8.67249 0.518229 9.84827 0.837239 10.8873 1.45703C11.9446 2.07682 12.7832 2.91536 13.403 3.97266C14.0227 5.01172 14.3418 6.1875 14.36 7.5C14.3418 8.8125 14.0227 9.98828 13.403 11.0273C12.7832 12.0846 11.9446 12.9232 10.8873 13.543C9.84827 14.1628 8.67249 14.4818 7.35999 14.5C6.04749 14.4818 4.8717 14.1628 3.83264 13.543C2.77535 12.9232 1.93681 12.0846 1.31702 11.0273C0.697225 9.98828 0.378215 8.8125 0.359985 7.5C0.378215 6.1875 0.697225 5.01172 1.31702 3.97266C1.93681 2.91536 2.77535 2.07682 3.83264 1.45703C4.8717 0.837239 6.04749 0.518229 7.35999 0.5ZM1.67249 7.5C1.70894 9.10417 2.26493 10.444 3.34045 11.5195C4.41598 12.5951 5.75582 13.151 7.35999 13.1875C8.96415 13.151 10.304 12.5951 11.3795 11.5195C12.455 10.444 13.011 9.10417 13.0475 7.5C13.011 5.89583 12.455 4.55599 11.3795 3.48047C10.304 2.40495 8.96415 1.84896 7.35999 1.8125C5.75582 1.84896 4.41598 2.40495 3.34045 3.48047C2.26493 4.55599 1.70894 5.89583 1.67249 7.5Z" fill="#0D0D0C"/>
</g>
<defs>
<clipPath id="clip0_4_1016">
<rect width="14" height="14" fill="white" transform="matrix(1 0 0 -1 0.359985 14.5)"/>
</clipPath>
</defs>
</svg>
