<svg width="32" height="34" viewBox="0 0 32 34" fill="none" xmlns="http://www.w3.org/2000/svg">
<g clip-path="url(#clip0_4_491)">
<path d="M16 30.7429L13.3333 22.7429H2.66669L5.33335 30.7429H16ZM16 30.7429H21.3333" stroke="white" stroke-width="1.5" stroke-linecap="round" stroke-linejoin="round"/>
<path d="M16 18.7429V18.0762C16 15.5621 16 14.305 15.2189 13.524C14.4379 12.7429 13.1808 12.7429 10.6667 12.7429C8.15249 12.7429 6.89541 12.7429 6.11437 13.524C5.33331 14.305 5.33331 15.5621 5.33331 18.0762V18.7429" stroke="white" stroke-width="1.5" stroke-linecap="round" stroke-linejoin="round"/>
<path d="M25.3333 18.7436C25.3333 20.2164 24.1395 21.4102 22.6667 21.4102C21.1939 21.4102 20 20.2164 20 18.7436C20 17.2708 21.1939 16.0769 22.6667 16.0769C24.1395 16.0769 25.3333 17.2708 25.3333 18.7436Z" stroke="white" stroke-width="1.5"/>
<path d="M13.3333 6.74357C13.3333 8.21633 12.1394 9.41024 10.6667 9.41024C9.19391 9.41024 8 8.21633 8 6.74357C8 5.27081 9.19391 4.0769 10.6667 4.0769C12.1394 4.0769 13.3333 5.27081 13.3333 6.74357Z" stroke="white" stroke-width="1.5"/>
<path d="M18.6667 24.7429H26.6667C28.1395 24.7429 29.3333 25.9368 29.3333 27.4096V28.0762C29.3333 29.549 28.1395 30.7429 26.6667 30.7429H25.3333" stroke="white" stroke-width="1.5" stroke-linecap="round"/>
</g>
<defs>
<clipPath id="clip0_4_491">
<rect width="32" height="33" fill="white" transform="translate(0 0.909912)"/>
</clipPath>
</defs>
</svg>
