<svg width="21" height="13" viewBox="0 0 21 13" fill="none" xmlns="http://www.w3.org/2000/svg">
<path d="M16.4992 4.44735C15.9831 4.44735 15.4892 4.54388 15.0343 4.71946C14.6779 3.92743 14.37 3.08982 14.2162 2.31056C13.9692 1.05907 12.8633 0.150757 11.5866 0.150757C11.263 0.150757 11.0006 0.413105 11.0006 0.736695C11.0006 1.06028 11.263 1.32263 11.5866 1.32263C11.726 1.32263 11.8617 1.34208 11.9911 1.37821C12.3841 1.48806 12.7177 1.75392 12.9122 2.11095C12.8965 2.13095 12.8815 2.1517 12.8682 2.17415L12.6861 2.4806L11.7652 4.03099H6.84472L6.56503 3.32704H6.68112C7.00472 3.32704 7.26706 3.0647 7.26706 2.7411C7.26706 2.41751 7.00472 2.15517 6.68112 2.15517H4.66085C4.33726 2.15517 4.07491 2.41751 4.07491 2.7411C4.07491 3.0647 4.33726 3.32704 4.66085 3.32704H5.30405L5.81538 4.61392C5.44913 4.50571 5.06171 4.44731 4.66085 4.44731C2.41065 4.44735 0.579987 6.27803 0.579987 8.52818C0.579987 10.7783 2.41065 12.609 4.66081 12.609C6.71202 12.609 8.41436 11.0877 8.6994 9.11411H9.77546C9.98218 9.11411 10.1736 9.00517 10.2792 8.82743L13.3584 3.6436C13.539 4.20259 13.7651 4.76267 14.0088 5.29774C13.0421 6.0447 12.4184 7.21489 12.4184 8.52821C12.4184 10.7784 14.249 12.609 16.4992 12.609C18.7493 12.609 20.58 10.7784 20.58 8.52821C20.58 6.27806 18.7493 4.44735 16.4992 4.44735ZM4.66081 9.11411H7.51046C7.23858 10.4382 6.06417 11.4371 4.66081 11.4371C3.05683 11.4371 1.75187 10.1322 1.75187 8.52818C1.75187 6.9242 3.05683 5.61924 4.66081 5.61924C6.06417 5.61924 7.23858 6.61813 7.51046 7.94224H4.66081C4.33722 7.94224 4.07487 8.20459 4.07487 8.52818C4.07487 8.85178 4.33722 9.11411 4.66081 9.11411ZM9.44198 7.94224H8.6994C8.56343 7.00087 8.10503 6.16252 7.43999 5.54298C7.4339 5.51946 7.42683 5.49604 7.41761 5.47287L7.31034 5.2029H11.0691L9.44198 7.94224ZM16.4992 11.4371C14.8952 11.4371 13.5902 10.1321 13.5902 8.52814C13.5902 7.67842 13.9566 6.9127 14.5395 6.38036C15.2601 7.75756 15.964 8.78419 16.017 8.861C16.1307 9.02571 16.3136 9.11411 16.4997 9.11411C16.6145 9.11411 16.7304 9.08044 16.832 9.01032C17.0984 8.82649 17.1652 8.46157 16.9814 8.19524C16.9688 8.17696 16.2597 7.14294 15.5497 5.77911C15.8475 5.67595 16.1668 5.61915 16.4992 5.61915C18.1032 5.61915 19.4081 6.92411 19.4081 8.5281C19.4081 10.1321 18.1032 11.4371 16.4992 11.4371Z" fill="#1CA8CB"/>
</svg>
