<svg width="20" height="21" viewBox="0 0 20 21" fill="none" xmlns="http://www.w3.org/2000/svg">
<path d="M10.0767 0.546631C8.1483 0.546631 6.26323 1.11846 4.65986 2.1898C3.05647 3.26115 1.80679 4.78388 1.06884 6.56547C0.330884 8.34704 0.137802 10.3074 0.514008 12.1988C0.890214 14.0901 1.81881 15.8273 3.18237 17.1909C4.54594 18.5545 6.28322 19.483 8.17453 19.8593C10.0658 20.2354 12.0262 20.0424 13.8079 19.3045C15.5895 18.5665 17.1121 17.3168 18.1835 15.7134C19.2548 14.1101 19.8267 12.225 19.8267 10.2966C19.8267 9.01624 19.5745 7.74839 19.0845 6.56547C18.5945 5.38254 17.8763 4.30771 16.9709 3.40234C16.0656 2.49696 14.9908 1.77879 13.8079 1.28881C12.6249 0.798822 11.357 0.546631 10.0767 0.546631ZM10.0767 18.0966C8.53397 18.0966 7.02591 17.6392 5.74322 16.7821C4.46051 15.925 3.46077 14.7068 2.87041 13.2816C2.28005 11.8563 2.12558 10.288 2.42654 8.77492C2.7275 7.26187 3.47038 5.87204 4.56123 4.78119C5.65209 3.69035 7.04191 2.94747 8.55495 2.64651C10.068 2.34554 11.6363 2.5 13.0616 3.09036C14.4868 3.68074 15.7051 4.68048 16.5621 5.96318C17.4192 7.24588 17.8767 8.75394 17.8767 10.2966C17.8767 12.3653 17.0549 14.3493 15.5921 15.8121C14.1293 17.2749 12.1454 18.0966 10.0767 18.0966ZM13.0992 10.9109L11.0517 9.73112V5.42163C11.0517 5.16304 10.9489 4.91504 10.7661 4.7322C10.5832 4.54935 10.3352 4.44663 10.0767 4.44663C9.81807 4.44663 9.57009 4.54935 9.38723 4.7322C9.20438 4.91504 9.10166 5.16304 9.10166 5.42163V10.2966C9.10166 10.2966 9.10166 10.3746 9.10166 10.4136C9.10743 10.4808 9.1239 10.5466 9.15042 10.6086C9.17049 10.6665 9.19663 10.722 9.22841 10.7744C9.25509 10.8298 9.28779 10.8821 9.32591 10.9304L9.48191 11.0571L9.56966 11.1449L12.1047 12.6074C12.2533 12.6916 12.4214 12.7353 12.5922 12.7341C12.808 12.7356 13.0183 12.6655 13.19 12.5346C13.3617 12.4037 13.4851 12.2196 13.5409 12.011C13.5967 11.8024 13.5816 11.5813 13.4981 11.3822C13.4147 11.1831 13.2675 11.0173 13.0797 10.9109H13.0992Z" fill="#1CA8CB"/>
</svg>
