<svg width="11" height="15" viewBox="0 0 11 15" fill="none" xmlns="http://www.w3.org/2000/svg">
<g clip-path="url(#clip0_4_1011)">
<path d="M7.4375 5.75C7.41927 6.36979 7.20964 6.88932 6.80859 7.30859C6.38932 7.70964 5.86979 7.91927 5.25 7.9375C4.63021 7.91927 4.11068 7.70964 3.69141 7.30859C3.29036 6.88932 3.08073 6.36979 3.0625 5.75C3.08073 5.13021 3.29036 4.61068 3.69141 4.19141C4.11068 3.79036 4.63021 3.58073 5.25 3.5625C5.86979 3.58073 6.38932 3.79036 6.80859 4.19141C7.20964 4.61068 7.41927 5.13021 7.4375 5.75ZM5.25 4.875C4.99479 4.875 4.78516 4.95703 4.62109 5.12109C4.45703 5.28516 4.375 5.49479 4.375 5.75C4.375 6.00521 4.45703 6.21484 4.62109 6.37891C4.78516 6.54297 4.99479 6.625 5.25 6.625C5.50521 6.625 5.71484 6.54297 5.87891 6.37891C6.04297 6.21484 6.125 6.00521 6.125 5.75C6.125 5.49479 6.04297 5.28516 5.87891 5.12109C5.71484 4.95703 5.50521 4.875 5.25 4.875ZM10.5 5.75C10.4635 6.57031 10.1719 7.51823 9.625 8.59375C9.0599 9.66927 8.42188 10.7083 7.71094 11.7109C7 12.7318 6.39844 13.543 5.90625 14.1445C5.72396 14.3633 5.50521 14.4727 5.25 14.4727C4.99479 14.4727 4.77604 14.3633 4.59375 14.1445C4.10156 13.543 3.49089 12.7318 2.76172 11.7109C2.05078 10.7083 1.42188 9.66927 0.875 8.59375C0.328125 7.51823 0.0364583 6.57031 0 5.75C0.0364583 4.25521 0.546875 3.01562 1.53125 2.03125C2.51562 1.04688 3.75521 0.536458 5.25 0.5C6.74479 0.536458 7.98438 1.04688 8.96875 2.03125C9.95312 3.01562 10.4635 4.25521 10.5 5.75ZM5.25 1.8125C4.13802 1.84896 3.20833 2.23177 2.46094 2.96094C1.73177 3.70833 1.34896 4.63802 1.3125 5.75C1.3125 6.09635 1.44922 6.61589 1.72266 7.30859C2.03255 8.0013 2.42448 8.73047 2.89844 9.49609C3.28125 10.1341 3.68229 10.7357 4.10156 11.3008C4.52083 11.8841 4.90365 12.4036 5.25 12.8594C5.59635 12.4036 5.97917 11.8932 6.39844 11.3281C6.81771 10.7448 7.21875 10.1341 7.60156 9.49609C8.07552 8.73047 8.46745 8.0013 8.77734 7.30859C9.05078 6.61589 9.1875 6.09635 9.1875 5.75C9.15104 4.63802 8.76823 3.70833 8.03906 2.96094C7.29167 2.23177 6.36198 1.84896 5.25 1.8125Z" fill="#0D0D0C"/>
</g>
<defs>
<clipPath id="clip0_4_1011">
<rect width="10.5" height="14" fill="white" transform="matrix(1 0 0 -1 0 14.5)"/>
</clipPath>
</defs>
</svg>
