<svg width="9" height="5" viewBox="0 0 9 5" fill="none" xmlns="http://www.w3.org/2000/svg">
<mask id="path-1-inside-1_4_1022" fill="white">
<path d="M0.0499268 0.440001H8.04993V4.44H0.0499268V0.440001Z"/>
</mask>
<g clip-path="url(#paint0_diamond_4_1022_clip_path)" data-figma-skip-parse="true" mask="url(#path-1-inside-1_4_1022)"><g transform="matrix(0.004 0 0 0.004 4.04993 0.440001)"><rect x="0" y="0" width="1250" height="1250" fill="url(#paint0_diamond_4_1022)" opacity="1" shape-rendering="crispEdges"/><rect x="0" y="0" width="1250" height="1250" transform="scale(1 -1)" fill="url(#paint0_diamond_4_1022)" opacity="1" shape-rendering="crispEdges"/><rect x="0" y="0" width="1250" height="1250" transform="scale(-1 1)" fill="url(#paint0_diamond_4_1022)" opacity="1" shape-rendering="crispEdges"/><rect x="0" y="0" width="1250" height="1250" transform="scale(-1)" fill="url(#paint0_diamond_4_1022)" opacity="1" shape-rendering="crispEdges"/></g></g><path d="M0.0499268 0.440001V-3.56H-3.95007V0.440001H0.0499268ZM8.04993 0.440001H12.0499V-3.56H8.04993V0.440001ZM0.0499268 0.440001V4.44H8.04993V0.440001V-3.56H0.0499268V0.440001ZM8.04993 0.440001H4.04993V4.44H8.04993H12.0499V0.440001H8.04993ZM0.0499268 4.44H4.04993V0.440001H0.0499268H-3.95007V4.44H0.0499268Z" data-figma-gradient-fill="{&#34;type&#34;:&#34;GRADIENT_DIAMOND&#34;,&#34;stops&#34;:[{&#34;color&#34;:{&#34;r&#34;:0.050980392843484879,&#34;g&#34;:0.050980392843484879,&#34;b&#34;:0.047058824449777603,&#34;a&#34;:1.0},&#34;position&#34;:0.99999988079071045},{&#34;color&#34;:{&#34;r&#34;:0.0,&#34;g&#34;:0.0,&#34;b&#34;:0.0,&#34;a&#34;:0.0},&#34;position&#34;:1.0}],&#34;stopsVar&#34;:[{&#34;color&#34;:{&#34;r&#34;:0.050980392843484879,&#34;g&#34;:0.050980392843484879,&#34;b&#34;:0.047058824449777603,&#34;a&#34;:1.0},&#34;position&#34;:0.99999988079071045},{&#34;color&#34;:{&#34;r&#34;:0.0,&#34;g&#34;:0.0,&#34;b&#34;:0.0,&#34;a&#34;:0.0},&#34;position&#34;:1.0}],&#34;transform&#34;:{&#34;m00&#34;:8.0,&#34;m01&#34;:0.0,&#34;m02&#34;:0.04992675781250,&#34;m10&#34;:0.0,&#34;m11&#34;:8.0,&#34;m12&#34;:-3.5599994659423828},&#34;opacity&#34;:1.0,&#34;blendMode&#34;:&#34;NORMAL&#34;,&#34;visible&#34;:true}" mask="url(#path-1-inside-1_4_1022)"/>
<defs>
<clipPath id="paint0_diamond_4_1022_clip_path"><path d="M0.0499268 0.440001V-3.56H-3.95007V0.440001H0.0499268ZM8.04993 0.440001H12.0499V-3.56H8.04993V0.440001ZM0.0499268 0.440001V4.44H8.04993V0.440001V-3.56H0.0499268V0.440001ZM8.04993 0.440001H4.04993V4.44H8.04993H12.0499V0.440001H8.04993ZM0.0499268 4.44H4.04993V0.440001H0.0499268H-3.95007V4.44H0.0499268Z" mask="url(#path-1-inside-1_4_1022)"/></clipPath><linearGradient id="paint0_diamond_4_1022" x1="0" y1="0" x2="500" y2="500" gradientUnits="userSpaceOnUse">
<stop offset="1" stop-color="#0D0D0C"/>
<stop offset="1" stop-opacity="0"/>
</linearGradient>
</defs>
</svg>
