<svg width="32" height="34" viewBox="0 0 32 34" fill="none" xmlns="http://www.w3.org/2000/svg">
<path d="M24.958 15.167C24.7011 15.4108 24.3576 15.5469 24.0001 15.5469C23.6427 15.5469 23.2992 15.4108 23.0423 15.167C20.6889 12.9225 17.5353 10.415 19.0733 6.77468C19.9048 4.80638 21.9009 3.54688 24.0001 3.54688C26.0993 3.54688 28.0953 4.80638 28.9269 6.77468C30.4629 10.4105 27.3171 12.9302 24.958 15.167Z" stroke="white" stroke-width="1.5"/>
<path d="M24 8.87988H24.012" stroke="white" stroke-width="2" stroke-linecap="round" stroke-linejoin="round"/>
<path d="M6.66669 30.2129C8.87583 30.2129 10.6667 28.422 10.6667 26.2129C10.6667 24.0038 8.87583 22.2129 6.66669 22.2129C4.45755 22.2129 2.66669 24.0038 2.66669 26.2129C2.66669 28.422 4.45755 30.2129 6.66669 30.2129Z" stroke="white" stroke-width="1.5" stroke-linecap="round" stroke-linejoin="round"/>
<path d="M14.6667 10.2129H12.6667C10.0893 10.2129 8 12.0038 8 14.2129C8 16.4221 10.0893 18.2129 12.6667 18.2129H16.6667C19.244 18.2129 21.3333 20.0037 21.3333 22.2129C21.3333 24.4221 19.244 26.2129 16.6667 26.2129H14.6667" stroke="white" stroke-width="1.5" stroke-linecap="round" stroke-linejoin="round"/>
</svg>
